<svg width="81" height="81" fill="none" xmlns="http://www.w3.org/2000/svg"><path d="M72.85 49.48l-14-23a1 1 0 00-.46-.4l-9.21-3.95a5.26 5.26 0 10-9.8 3.36l-7.69 10.26-18.26-8.65a1 1 0 10-.86 1.8l19 9a1 1 0 001.23-.3l7.9-10.53a5.17 5.17 0 003.3 1.2 5.28 5.28 0 005.1-4l8.21 3.52 13.84 22.73a1 1 0 101.7-1v-.04zM44 26.27A3.269 3.269 0 1147.27 23 3.28 3.28 0 0144 26.27z" fill="#203752"/><path fill-rule="evenodd" clip-rule="evenodd" d="M81 75l-8-6v5H7V8h5L6 0 0 8h5v68h68v5l8-6z" fill="#3EA6E7"/></svg>