<?xml version="1.0" standalone="no"?>
<!DOCTYPE svg PUBLIC "-//W3C//DTD SVG 20010904//EN"
 "http://www.w3.org/TR/2001/REC-SVG-20010904/DTD/svg10.dtd">
<svg version="1.0" xmlns="http://www.w3.org/2000/svg"
 width="260.000000pt" height="260.000000pt" viewBox="0 0 260.000000 260.000000"
 preserveAspectRatio="xMidYMid meet">
<metadata>
Created by potrace 1.11, written by Peter Selinger 2001-2013
</metadata>
<g transform="translate(0.000000,260.000000) scale(0.100000,-0.100000)"
fill="#000000" stroke="none">
<path d="M671 2141 c-18 -5 -38 -15 -42 -23 -11 -16 -6 -1160 5 -1202 40 -158
100 -257 206 -341 137 -108 410 -152 655 -105 220 43 376 165 446 349 45 118
48 174 48 746 1 297 -3 545 -7 552 -23 36 -253 44 -304 11 l-25 -17 -2 -543
c0 -299 -3 -554 -6 -567 -23 -117 -84 -199 -180 -243 -42 -19 -67 -23 -155
-23 -92 0 -112 3 -160 26 -97 45 -157 128 -179 244 -5 27 -9 285 -10 574 0
510 -1 525 -20 545 -17 17 -36 20 -128 22 -59 2 -123 -1 -142 -5z"/>
</g>
</svg>
