<svg width="144" height="41" viewBox="0 0 119 31" fill="none" xmlns="http://www.w3.org/2000/svg"><path d="M72.047 8.797a10.57 10.57 0 00-4.924 1.28c0-4.464.067-8.34.17-9.827L58.23 2.015v.83l.89.104c1.266.173 1.745.934 1.916 2.63.274 3.287.24 20.83 0 23.633 2.534.607 5.126.932 7.73.969 7.181 0 11.525-4.498 11.525-11.627-.034-5.674-3.556-9.757-8.243-9.757zm-3.145 19.965a9.95 9.95 0 01-1.54-.138c-.136-1.973-.24-10.104-.206-17.198a5.854 5.854 0 012.12-.346c2.978 0 4.653 3.495 4.653 7.855-.035 5.606-2.087 9.827-5.028 9.827zM24.163 9.004l-1.401.38c-1.267-4.151-3.215-6.504-6.876-6.504h-4.72c-.205 2.664-.308 7.093-.273 11.695l3.18-.104c2.122-.069 2.976-1.66 3.49-3.979h1.197v9.758h-1.198c-.513-2.353-1.402-3.945-3.523-4.014l-3.146-.104c.034 3.495.136 6.47.273 8.236.205 2.595.925 3.737 2.736 4.013l1.609.173v1.177H.188v-1.177l1.266-.173c1.811-.276 2.53-1.418 2.736-4.013.341-4.291.41-13.184 0-18.166-.206-2.561-.925-3.703-2.737-3.98L.188 2.05V.907h23.84l.136 8.097zm7.628-.45c6.772 0 10.125 4.637 10.125 10.796 0 6.16-3.797 10.865-10.57 10.865-6.771 0-10.157-4.636-10.157-10.76 0-6.125 3.796-10.9 10.602-10.9v-.001zm-.343 1.315c-3.01 0-3.83 4.083-3.83 9.516 0 5.432 1.335 9.516 4.105 9.516 2.77 0 3.83-4.084 3.83-9.516 0-5.433-1.367-9.481-4.138-9.481l.034-.035zm50.485 9.724c0-5.675 3.522-11.004 10.533-11.004 5.678 0 8.381 4.256 8.415 9.827h-12.69c-.136 5.052 2.394 8.789 7.251 8.789 2.12 0 3.285-.519 4.583-1.522l.582.726c-1.403 1.972-4.344 3.841-8.242 3.841-6.123-.035-10.432-4.394-10.432-10.657zm6.326-2.596l6.362-.138c.035-2.837-.41-6.92-2.701-6.92s-3.626 3.84-3.695 7.024l.035.034zm28.902-2.041l-1.026.277c-1.095-3.634-2.77-5.156-5.233-5.156-1.642 0-2.804 1.246-2.804 3.045 0 1.8 1.333 2.734 5.164 4.221 3.83 1.488 4.926 2.976 4.926 5.883 0 4.325-3.284 6.99-8.689 6.99a21.084 21.084 0 01-7.147-1.28l-.172-5.987 1.026-.277c1.47 4.187 3.42 5.71 5.986 5.71 2.565 0 3.386-1.558 3.386-3.219 0-1.66-.923-2.595-4.377-3.84-3.456-1.246-5.541-2.595-5.541-6.229 0-3.633 3.078-6.54 8.174-6.54 2.36 0 4.617.416 6.122 1.108l.205 5.294zm-59.787-.173c-2.736-1.869-5.712-1.038-6.293-.035a92.572 92.572 0 00.069 11.073c.136 1.695.65 2.457 1.916 2.63l1.64.103v1.177H42.087v-1.177l.89-.103c1.265-.173 1.744-.935 1.915-2.63a89.732 89.732 0 000-11.938c-.138-1.695-.65-2.457-1.916-2.63l-.89-.103v-.83l9.065-1.766-.103 4.776c2.12-4.914 6.294-5.571 8.55-4.187l-2.222 5.64h-.002z" fill="#000"/></svg>