<svg width="74" height="74" fill="none" xmlns="http://www.w3.org/2000/svg"><g clip-path="url(#clip0)"><path d="M58 27a30 30 0 11-11-11 3 3 0 01.68-1.88 32 32 0 1012.2 12.2A3 3 0 0158 27z" fill="#3EA6E7"/><path d="M37.8 40.45c.131.506.198 1.027.2 1.55a6 6 0 11-6-6 5.61 5.61 0 011.59.23l1.57-1.57a8 8 0 104.22 4.27l-1.58 1.52z" fill="#3EA6E7"/><path fill-rule="evenodd" clip-rule="evenodd" d="M73.93 9.63A1 1 0 0073 9h-8V1a1 1 0 00-1.73-.68l-14 15A1 1 0 0049 16v7.59L32.51 40.08A1.697 1.697 0 0032 40a2 2 0 102 2 2.086 2.086 0 00-.07-.51L50.41 25H58a1 1 0 00.68-.27l15-14a1 1 0 00.25-1.1zM63 9.59l-5 5V8.9l5-5.36v6.05zM51 16.4l5-5.4v5.55l-5 5V16.4zm6.61 6.6h-5.2l5-5H63l-5.39 5zm7.5-7h-5.7l5-5h6l-5.3 5z" fill="#203752"/><path d="M46.66 31.59a18.12 18.12 0 11-4.25-4.24l1.43-1.43a20.08 20.08 0 104.24 4.24l-1.42 1.43z" fill="#3EA6E7"/></g><defs><clipPath id="clip0"><path fill="#fff" d="M0 0h74v74H0z"/></clipPath></defs></svg>