<svg width="69" height="80" fill="none" xmlns="http://www.w3.org/2000/svg"><path d="M32.102 39.22l-3.04-.392a.999.999 0 01-.669-.383 1.015 1.015 0 01-.08-1.123 1.011 1.011 0 01.607-.476.994.994 0 01.39-.029l3.042.392c.264.034.504.172.668.384a1.02 1.02 0 01-.176 1.422.999.999 0 01-.742.206zm7.777-.372l-2.991.282a.993.993 0 01-.977-.537 1.017 1.017 0 01.423-1.363.993.993 0 01.374-.111l3.041-.292a.996.996 0 01.733.227 1.013 1.013 0 01.134 1.422 1 1 0 01-.677.362l-.06.01zm0 1.841a26.297 26.297 0 01-12.532-.463c.58.786 1.102 1.613 1.565 2.474a29.8 29.8 0 009.97.211c.299-.764.648-1.508.997-2.222z" fill="#203752"/><path d="M47.914 73.534l-3.05-.342a1 1 0 01-.85-.728 1.02 1.02 0 01.34-1.07 1.002 1.002 0 01.739-.214l2.99.342a1 1 0 01.672.377 1.019 1.019 0 01-.162 1.422.997.997 0 01-.739.213h.06zm-7.786-1.408l-.509-.171a1 1 0 01-.577-.504 1.015 1.015 0 01.444-1.351.99.99 0 01.761-.056l.509.171a1 1 0 01.578.504 1.015 1.015 0 01-.445 1.351.99.99 0 01-.761.056zm20.856-.171l-.508.17a.99.99 0 01-.762-.055 1.015 1.015 0 01-.444-1.351 1 1 0 01.578-.504l.508-.171a.989.989 0 01.76.06 1.014 1.014 0 01.44 1.348 1 1 0 01-.572.503zm-5.234 1.186l-2.99.433a1 1 0 01-.746-.195 1.017 1.017 0 01-.198-1.422c.161-.215.4-.357.664-.394l2.991-.433a1 1 0 01.746.195 1.022 1.022 0 01.197 1.422c-.16.215-.4.357-.664.394zM29.78 54.597v-.895c0-8.226-5.713-16.945-11.117-16.945-5.403 0-11.076 8.719-11.076 16.945v.895C2.99 56.387 0 59.334 0 62.632a7.46 7.46 0 00.409 2.112L2.94 72.79c1.157 4.143 7.657 7.2 15.752 7.2s14.506-3.017 15.722-7.14l2.553-8.126a7.344 7.344 0 00.408-2.102c.02-3.288-2.96-6.235-7.597-8.025zM18.692 38.768c3.898 0 9.122 7.392 9.122 14.934 0 7.543-3.499 12.39-9.122 12.39-5.623 0-9.112-4.747-9.112-12.39 0-7.643 5.214-14.934 9.112-14.934zm13.818 33.64c-.997 3.117-6.899 5.61-13.798 5.61s-12.85-2.543-13.818-5.681L3.71 68.616c3.38 2.414 8.773 3.952 14.954 3.952 6.181 0 11.605-1.538 14.955-3.942l-1.107 3.781zm-13.818-1.81c-9.052-.041-16.7-3.671-16.7-7.966 0-2.292 2.264-4.455 5.783-5.923.898 7.04 4.985 11.394 10.967 11.394S28.773 63.72 29.71 56.71c3.509 1.468 5.782 3.59 5.782 5.923-.09 4.295-7.746 7.925-16.799 7.925v.04z" fill="#3EA6E7"/><path d="M16.32 75.917l-3.05-.332a1.001 1.001 0 01-.673-.372 1.018 1.018 0 01.155-1.423.997.997 0 01.737-.216l2.99.332a1 1 0 01.675.369 1.017 1.017 0 01-.148 1.422.996.996 0 01-.736.22h.05zm-7.856-1.408l-.498-.201a1.016 1.016 0 01-.559-.542 1.029 1.029 0 01-.015-.78c.098-.253.291-.455.537-.564.246-.108.525-.114.774-.015l.489.201a.996.996 0 01.581.53 1.013 1.013 0 01-.526 1.352.988.988 0 01-.783-.011v.03zm20.966-.201l-.498.201a.99.99 0 01-.764-.01 1.014 1.014 0 01-.522-1.323.998.998 0 01.548-.537l.489-.202a.992.992 0 01.765.008c.244.104.437.303.536.55a1.017 1.017 0 01-.554 1.313zm-5.303 1.267l-3.041.352a.998.998 0 01-.739-.213 1.014 1.014 0 01-.162-1.422 1 1 0 01.671-.376l2.991-.352c.265-.03.53.046.739.213a1.015 1.015 0 01-.51 1.798h.05z" fill="#3EA6E7"/><path d="M25.363 37.964l.438-1.961-2.472-.563-.17.774c.792.506 1.53 1.092 2.204 1.75zM45.581 17.83v-.885C45.611 8.71 39.88 0 34.495 0S23.389 8.709 23.389 16.945v.885c-4.646 1.79-7.617 4.697-7.617 8.046.007.472.074.942.2 1.397l1.993 7.543a5.73 5.73 0 01.728-.07c.456.004.91.055 1.356.15l-.857-3.268c3.35 2.564 8.902 4.173 15.303 4.173 6.4 0 11.954-1.609 15.353-4.173l-.21.794c.23 0 .47-.06.709-.06.448.008.895.055 1.336.14l1.326-5.118c.14-.49.218-.998.229-1.509-.04-3.348-3.01-6.255-7.657-8.045zM34.495 2.011c3.898 0 9.122 7.382 9.122 14.934 0 7.553-3.5 12.39-9.122 12.39-5.623 0-9.112-4.747-9.112-12.39 0-7.643 5.224-14.934 9.112-14.934zm0 31.78c-9.052 0-16.7-3.621-16.7-7.915 0-2.334 2.274-4.466 5.783-5.924.898 7.04 4.985 11.394 10.967 11.394s10.03-4.384 10.966-11.394c3.51 1.458 5.783 3.59 5.783 5.923-.09 4.295-7.737 7.915-16.799 7.915z" fill="#203752"/><path d="M61.383 52.204v-.885c0-8.237-5.712-16.946-11.106-16.946s-11.086 8.71-11.086 16.915v.906a16.66 16.66 0 00-4.646 2.594 13.98 13.98 0 011.615 1.277 14.754 14.754 0 013.22-1.76c.898 7.04 4.985 11.395 10.967 11.395s9.98-4.355 10.877-11.395c3.509 1.459 5.782 3.59 5.782 5.924 0 4.294-7.647 7.924-16.7 7.924a28.386 28.386 0 01-11.424-2.182l-.559 2.011a30.264 30.264 0 0011.964 2.243c6.161 0 11.525-1.519 14.905-3.892l-1.167 3.832c-1.116 3.017-6.979 5.47-13.738 5.47-5.782 0-10.857-1.75-12.96-4.153l-.619 2.172c2.792 2.414 7.757 4.023 13.55 4.023 8.065 0 14.535-3.017 15.731-7.18l2.513-8.046c.258-.7.41-1.436.448-2.182.05-3.369-2.92-6.275-7.567-8.065zM50.307 63.708c-5.633 0-9.122-4.746-9.122-12.39 0-7.642 5.224-14.933 9.122-14.933 3.898 0 9.112 7.381 9.112 14.903 0 7.523-3.49 12.42-9.112 12.42z" fill="#3EA6E7"/></svg>