<svg width="104" height="41" fill="none" xmlns="http://www.w3.org/2000/svg"><g clip-path="url(#clip0)" fill="#000"><path d="M28.125 31.917l-9.667-14.625 9.584-14.709H21l-6.417 10-6.333-10H.958l9.584 14.584-9.667 14.75H8l6.417-10.042 6.458 10.042h7.25zm12.31-22.042c-5.625 0-8.834 3.083-9.417 6.792h5.667c.333-1.125 1.416-2.084 3.5-2.084 2.041 0 3.541 1.042 3.541 3.042v1h-4.708c-5.5 0-8.833 2.542-8.833 6.958 0 4.334 3.333 6.834 7.5 6.834 2.791 0 5.041-1.084 6.375-2.834v2.334h5.625V17.833c0-5.25-3.709-7.958-9.25-7.958zM39.35 27.708c-1.875 0-3.083-.916-3.083-2.416 0-1.542 1.333-2.459 3.208-2.459h4.25v.959c0 2.5-2.041 3.916-4.375 3.916zM66.542 10.75c-3 0-5.458 1.083-7.042 3.292C59.917 10 61.542 8 65.625 7.375l8.209-1.208V.875l-8.792 1.458c-8.5 1.417-11.125 7.084-11.125 16.542 0 8.5 4.125 13.542 11.417 13.542 6.541 0 10.583-5 10.583-11 0-6.459-3.75-10.667-9.375-10.667zm-1.5 16.583c-3.167 0-4.917-2.541-4.917-5.958 0-3.292 1.834-5.667 4.959-5.667 3.041 0 4.75 2.459 4.75 5.709 0 3.25-1.667 5.916-4.792 5.916zM92.143 9.875c-3.167 0-5.209 1.375-6.292 3v-2.5h-5.833v29.5H86.1V29.833c1.083 1.5 3.125 2.584 5.875 2.584 5.292 0 9.5-4.167 9.5-11.25 0-7.209-4.208-11.292-9.333-11.292zm-1.459 17.292c-2.833 0-4.708-2.292-4.708-5.917v-.167c0-3.625 1.875-5.958 4.708-5.958 2.834 0 4.667 2.375 4.667 6.042 0 3.666-1.833 6-4.667 6z"/></g><defs><clipPath id="clip0"><path fill="#fff" d="M0 .25h103.333v40H0z"/></clipPath></defs></svg>