<svg width="220" height="54" fill="none" xmlns="http://www.w3.org/2000/svg"><g clip-path="url(#clip0)" fill="#96A2C0"><path d="M15.386 22.742l-7.843-4.894 35.92-2.433C31.235 23.129 23.633 30.51 19.81 36.66l.027-.04c-.134.16-.255.334-.362.495h-.014c-.107.173-.227.334-.348.508-.12.16-.228.334-.349.494a6.428 6.428 0 01-.335.495v.014l-.322.48v.014c-.107.16-.214.321-.308.482l-.014.013c-.093.16-.2.32-.295.481l-.013.014-.282.48h-.013l-.281.482v.014c-.094.16-.188.307-.269.468l-.013.013c-.08.16-.174.307-.255.468l-.013.013c-.08.16-.161.308-.242.468-.066.12-.134.254-.2.375l-.054.093c-.054.12-.107.227-.161.334-.027.054-.054.094-.08.148l-.363.762-.08.16c-.04.094-.067.174-.107.254-.027.067-.067.134-.094.214-.04.094-.08.174-.12.267-.028.067-.055.12-.081.174-.04.094-.067.188-.108.281-.026.054-.053.12-.08.174a2.39 2.39 0 01-.107.28.82.82 0 01-.067.161c-.04.12-.08.227-.121.348l-.04.093c-.027.107-.067.2-.107.294a2.203 2.203 0 01-.04.148c-.04.106-.068.2-.108.307l-.04.12-.12.361-.014.067c-.08.268-.161.535-.228.803v.026c-.04.134-.067.268-.107.388v.027l-.08.36-.014.04a3.44 3.44 0 00-.067.362l-.014.04c-.013.067-.027.12-.027.187.537.321 1.086.615 1.65.883.616-3.77 2.587-8.384 5.805-13.25-5 9.319-2.373 15.335 5.23 15.964 7.387.187 14.828-2.661 20.232-8.504 9.962-10.75 9.291-27.516-1.488-37.45C33.916-2.127 17.103-1.46 7.154 9.29c-8.943 9.653-9.305 24.133-1.515 34.175.335-6.004 3.298-13.224 9.747-20.724zm58.328 4.101l-5.323-1.992c-.872-.334-1.515-.695-1.918-1.056a1.675 1.675 0 01-.536-1.27c0-.83.416-1.939 3.996-1.939 2.091 0 4.062.495 5.845 1.484l.872.468v-3.356l-.268-.133c-1.783-.87-4.01-1.31-6.637-1.31-2.413 0-4.317.4-5.645 1.19-1.367.815-2.065 2.018-2.065 3.57 0 2.178 1.341 3.783 4.023 4.8l5.323 1.978c.871.348 1.501.708 1.89 1.083.349.334.523.789.523 1.35 0 .963-.429 2.246-4.116 2.246-1.18 0-2.4-.16-3.634-.468-1.22-.294-2.266-.681-3.083-1.136l-.872-.495v3.37l.282.133c1.997.963 4.532 1.444 7.495 1.444 2.427 0 4.344-.44 5.711-1.297 1.422-.895 2.132-2.152 2.132-3.77 0-1.19-.335-2.193-.978-2.968-.644-.776-1.663-1.43-3.017-1.925zm27.821 9.666h3.727V22.604h-3.727v13.905zm23.371-14.21c-1.945 0-3.688.348-5.203 1.043-1.126-.695-2.654-1.043-4.572-1.043-2.239 0-4.411.561-6.436 1.658l-.254.133v12.421h3.727V25.628c.764-.388 1.609-.575 2.561-.575 1.234 0 2.118.254 2.641.749.537.521.818 1.404.818 2.62v8.09h3.728v-8.344c0-.922-.121-1.751-.362-2.473a6.97 6.97 0 012.949-.642c1.234 0 2.119.254 2.642.749.536.521.818 1.404.818 2.62v8.09h3.727v-8.344c0-1.952-.55-3.436-1.622-4.398-1.086-.976-2.829-1.471-5.162-1.471zm43.508 0c-2.535 0-4.505.588-5.873 1.751-1.368 1.15-2.051 2.795-2.051 4.88v1.257c0 2.086.683 3.717 2.051 4.867 1.368 1.163 3.338 1.752 5.873 1.752 2.534 0 4.518-.589 5.886-1.752 1.367-1.15 2.051-2.78 2.051-4.867V28.93c0-2.085-.684-3.73-2.051-4.88-1.368-1.163-3.352-1.751-5.886-1.751zm4.21 6.631v1.257c0 1.31-.376 2.3-1.113 2.928-.751.629-1.757.936-3.057.936-1.328 0-2.347-.307-3.111-.936-.751-.615-1.126-1.604-1.126-2.928V28.93c0-1.31.375-2.3 1.113-2.928.751-.641 1.756-.949 3.057-.949 1.327 0 2.346.308 3.11.936.751.628 1.127 1.604 1.127 2.941zm14.4.065c.429-.374.872-.842 1.354-1.417l3.902-4.974h-4.398l-2.507 3.25c-.523.695-.992 1.176-1.368 1.43-.335.227-.67.334-1.019.334h-.911v-7.835h-3.728V36.51h3.728v-6.137h.817c.389 0 .751.107 1.086.334.389.254.859.735 1.408 1.444l3.392 4.358h4.398l-4.8-6.096c-.469-.562-.911-1.043-1.354-1.418z"/><path d="M207.538 27.326c0-1.404-.59-2.607-1.756-3.57-1.167-.962-2.95-1.457-5.296-1.457-2.535 0-4.519.588-5.886 1.751-1.355 1.15-2.052 2.795-2.052 4.88v1.257c0 2.1.738 3.757 2.172 4.894 1.448 1.15 3.593 1.725 6.382 1.725 1.797 0 3.486-.348 5.069-1.03l.281-.134v-3.275l-.871.481c-1.408.802-2.91 1.203-4.438 1.203-2.883 0-4.425-.909-4.8-2.874h6.006c4.291 0 5.189-2.1 5.189-3.85zm-11.249 1.11c.08-1.083.456-1.899 1.113-2.447.737-.628 1.743-.936 3.043-.936 1.127 0 1.958.214 2.508.615.536.401.804.936.804 1.658 0 .548-.201 1.11-1.716 1.11h-5.752zm-99.541-5.765c-.71.054-1.555.174-2.52.348v-.428H90.46v13.945h3.767V25.853c2.065-.695 5.19-.575 5.23-.575l.576.027v-2.46l-.295-.134c-.362-.16-1.421-.173-2.99-.04zm60.122 0c-.711.054-1.569.174-2.534.348v-.428h-3.754v13.945h3.754V25.853c2.065-.695 5.202-.575 5.229-.575l.59.027v-2.46l-.295-.134c-.362-.16-1.421-.173-2.99-.04zm61.931.04c-.362-.16-1.421-.173-2.99-.04-.831.067-1.756.214-2.534.348v-.428h-3.754v13.945h3.754V25.853c2.065-.695 5.202-.575 5.229-.575l.59.027v-2.46l-.295-.134zm-77.082-.414c-1.475 0-2.802.254-3.955.735v-3.249h-3.727v15.229l.254.134c2.025 1.096 4.318 1.658 6.812 1.658 2.762 0 4.8-.575 6.033-1.712 1.22-1.123 1.837-2.767 1.837-4.92v-1.244c0-2.125-.59-3.77-1.73-4.893-1.179-1.15-3.03-1.738-5.524-1.738zm3.527 7.875c0 1.35-.322 2.353-.952 2.968-.604.602-1.703.91-3.285.91-1.18 0-2.266-.201-3.245-.602V25.96c1.006-.615 2.172-.909 3.553-.909 1.435 0 2.44.308 3.017.91.603.628.912 1.63.912 2.968v1.243zM87.993 33.97c-.376.053-.778.08-1.194.08-.442 0-1.032-.054-1.287-.308-.174-.16-.362-.522-.362-1.297v-7.086h2.843v-2.755H85.15v-2.82h-3.727v2.82H78.46v2.755h2.963v7.086c0 3.596 2.708 4.359 4.974 4.359.563 0 1.086-.04 1.596-.094v-2.74z"/></g><defs><clipPath id="clip0"><path fill="#fff" d="M.1.773h219v53H.1z"/></clipPath></defs></svg>