<svg width="20" height="21" fill="none" xmlns="http://www.w3.org/2000/svg"><path d="M10.946 1.636c.082.006.158.012.222.021 4.503.693 6.574 2.826 7.147 7.364.01.077.012.171.013.27.006.355.018 1.093.81 1.108h.024c.25 0 .446-.075.588-.223.246-.257.23-.64.215-.948-.003-.076-.006-.147-.006-.21.058-4.64-3.96-8.849-8.596-9.005-.02 0-.038 0-.056.003a.388.388 0 01-.055.003c-.047 0-.103-.004-.164-.008-.072-.005-.155-.011-.24-.011-.738 0-.878.525-.896.838-.04.723.658.774.994.798zm7.152 13.25a14.353 14.353 0 01-.287-.224c-.492-.396-1.015-.76-1.52-1.113l-.315-.22c-.648-.455-1.23-.676-1.78-.676-.742 0-1.388.41-1.922 1.217-.236.358-.523.532-.876.532a1.741 1.741 0 01-.706-.177c-2.09-.948-3.584-2.402-4.438-4.321-.413-.928-.279-1.534.447-2.028.413-.28 1.18-.801 1.127-1.8-.062-1.133-2.563-4.544-3.617-4.931a2.053 2.053 0 00-1.396-.004C1.605 1.548.736 2.264.301 3.209c-.42.914-.4 1.987.054 3.103 1.315 3.227 3.163 6.041 5.494 8.363 2.281 2.273 5.085 4.134 8.333 5.533.293.126.6.195.825.245.076.017.142.032.19.045.027.007.054.01.081.011h.026c1.528 0 3.363-1.396 3.926-2.987.494-1.394-.408-2.083-1.132-2.636zm-6.476-9.563c-.26.006-.806.02-.997.574-.09.26-.079.484.032.669.162.27.473.354.755.4 1.025.164 1.552.73 1.657 1.783.05.49.38.833.803.833a.79.79 0 00.096-.006c.51-.06.757-.435.735-1.114.008-.708-.362-1.512-.993-2.152-.632-.642-1.394-1.004-2.088-.987z" fill="#fff"/></svg>