<svg width="92" height="41" fill="none" xmlns="http://www.w3.org/2000/svg"><g clip-path="url(#clip0)" fill-rule="evenodd" clip-rule="evenodd" fill="#000"><path opacity=".5" d="M.188 7.25v21.214L21.4 7.25H.188z"/><path d="M1.974 30.25h21.213V9.036L1.974 30.25z"/></g><path d="M29.575 30.25h4.463v-8.587h5.023c4.742 0 7.563-2.759 7.563-6.572S43.804 8.55 39.06 8.55h-9.486v21.7zm4.463-12.4v-5.394h4.713c2.108 0 3.41.93 3.41 2.697 0 1.736-1.303 2.697-3.41 2.697h-4.712zm15.971 12.4h9.362c5.146 0 8.215-2.945 8.215-7.099 0-4.123-3.069-7.13-8.215-7.13h-4.898v-3.472h11.284V8.55H50.01v21.7zm4.464-3.937v-6.572h4.557c2.542 0 4.061 1.209 4.061 3.317s-1.519 3.255-4.06 3.255h-4.558zm16.818 3.937h4.464V20.237l9.331 10.013h5.704L80.002 18.501 89.21 8.55h-5.456l-7.998 8.556V8.55h-4.464v21.7z" fill="#000"/><defs><clipPath id="clip0"><path fill="#fff" d="M.188 7.25h23v23h-23z"/></clipPath></defs></svg>