<svg width="41" height="39" fill="none" xmlns="http://www.w3.org/2000/svg"><path d="M32.662 17.769c3.017 0 5.288-1.257 6.962-3.445l-2.238-1.707a5.904 5.904 0 01-4.724 2.335c-3.274 0-5.646-2.667-5.646-5.94 0-3.273 2.333-6.09 5.74-6.09 1.513 0 2.584.357 3.517.936v2.877h2.816V2.54l-.54-.424C37.003.897 34.638.25 32.662.25 27.829.25 23.9 4.18 23.9 9.011c0 4.827 3.927 8.758 8.76 8.758h.002zm5.843 17.28l-.1-4.032v-9.843h-5.874v2.817h2.908v6.678c0 2.877-2.197 4.914-4.414 4.914-2.216 0-3.373-1.537-3.373-4.413v-9.997h-5.487v2.817h2.52v7.669c0 3.902 2.188 6.591 6.09 6.591 2.243 0 3.95-1.244 4.97-3.163h.045l.402 2.683h4.514v-2.717h-2.197v-.005l-.004.002zM23.251.664h-4.895l-4.258 12.363h-.066L9.797.663H4.581v2.819h2.934l5.048 14.091h2.682v-.003l5.266-14.087h2.738V.664h.002zM0 37.806h2.9v-2.9H.002v2.9H0zm11.202-13.365h-.032l-.182-3.267H5.81v2.568h2.755v11.31H5.81v2.716h12.796v-2.663h-7.124V28.28c.322-2.47 2.174-4.58 4.702-4.58h.045l-.051 2.525h2.816v-5.098h-2.226c-2.55-.007-4.443 1.373-5.567 3.315z" fill="#000"/></svg>