<svg width="144" height="41" viewBox="0 0 119 31" fill="none" xmlns="http://www.w3.org/2000/svg">
<path d="M72.0475 8.797C70.3275 8.816 68.6375 9.255 67.1225 10.077C67.1225 5.613 67.1905 1.737 67.2935 0.25L58.2295 2.015V2.845L59.1195 2.949C60.3845 3.122 60.8635 3.883 61.0345 5.579C61.3085 8.866 61.2745 26.409 61.0345 29.212C63.5685 29.819 66.1605 30.144 68.7645 30.181C75.9465 30.181 80.2905 25.683 80.2905 18.554C80.2565 12.88 76.7335 8.797 72.0475 8.797ZM68.9015 28.762C68.3854 28.756 67.8705 28.7099 67.3615 28.624C67.2255 26.651 67.1225 18.52 67.1565 11.426C67.8358 11.1809 68.5545 11.0636 69.2765 11.08C72.2535 11.08 73.9285 14.575 73.9285 18.935C73.8945 24.541 71.8425 28.762 68.9015 28.762ZM24.1635 9.004L22.7615 9.384C21.4955 5.233 19.5465 2.88 15.8865 2.88H11.1665C10.9615 5.544 10.8585 9.973 10.8935 14.575L14.0735 14.471C16.1945 14.402 17.0495 12.811 17.5635 10.492H18.7595V20.25H17.5625C17.0495 17.897 16.1605 16.305 14.0395 16.236L10.8935 16.132C10.9275 19.627 11.0295 22.602 11.1665 24.368C11.3715 26.963 12.0905 28.105 13.9025 28.381L15.5105 28.554V29.731H0.1875V28.554L1.4535 28.381C3.2655 28.105 3.9835 26.963 4.1895 24.368C4.5315 20.077 4.5995 11.184 4.1895 6.202C3.9845 3.641 3.2655 2.499 1.4535 2.222L0.1875 2.05V0.907H24.0275L24.1635 9.004ZM31.7905 8.554C38.5635 8.554 41.9155 13.191 41.9155 19.35C41.9155 25.51 38.1185 30.215 31.3455 30.215C24.5745 30.215 21.1885 25.579 21.1885 19.455C21.1885 13.33 24.9845 8.555 31.7905 8.555V8.554ZM31.4485 9.869C28.4385 9.869 27.6185 13.952 27.6185 19.385C27.6185 24.817 28.9525 28.901 31.7225 28.901C34.4925 28.901 35.5525 24.817 35.5525 19.385C35.5525 13.952 34.1855 9.904 31.4145 9.904L31.4485 9.869ZM81.9325 19.593C81.9325 13.918 85.4555 8.589 92.4665 8.589C98.1445 8.589 100.847 12.845 100.881 18.416H88.1915C88.0545 23.468 90.5855 27.205 95.4425 27.205C97.5625 27.205 98.7265 26.686 100.025 25.683L100.607 26.409C99.2045 28.381 96.2635 30.25 92.3645 30.25C86.2415 30.215 81.9325 25.856 81.9325 19.593ZM88.2595 16.997L94.6215 16.859C94.6555 14.022 94.2115 9.939 91.9195 9.939C89.6285 9.939 88.2945 13.779 88.2255 16.963L88.2595 16.997ZM117.161 14.956L116.135 15.233C115.04 11.599 113.365 10.077 110.902 10.077C109.26 10.077 108.098 11.323 108.098 13.122C108.098 14.922 109.431 15.856 113.262 17.343C117.092 18.831 118.188 20.319 118.188 23.226C118.188 27.551 114.904 30.216 109.499 30.216C107.061 30.2058 104.642 29.7728 102.352 28.936L102.18 22.949L103.206 22.672C104.676 26.859 106.626 28.382 109.192 28.382C111.757 28.382 112.578 26.824 112.578 25.163C112.578 23.503 111.655 22.568 108.201 21.323C104.745 20.077 102.66 18.728 102.66 15.094C102.66 11.461 105.738 8.554 110.834 8.554C113.194 8.554 115.451 8.97 116.956 9.662L117.161 14.956ZM57.3745 14.783C54.6385 12.914 51.6625 13.745 51.0815 14.748C50.8832 18.4371 50.9059 22.1347 51.1495 25.821C51.2865 27.516 51.7995 28.278 53.0655 28.451L54.7065 28.554V29.731H42.0875V28.554L42.9765 28.451C44.2415 28.278 44.7205 27.516 44.8915 25.821C45.1565 21.8461 45.1565 17.8579 44.8915 13.883C44.7545 12.188 44.2415 11.426 42.9765 11.253L42.0865 11.15V10.32L51.1505 8.554L51.0485 13.33C53.1685 8.416 57.3415 7.759 59.5985 9.143L57.3755 14.783H57.3745Z" fill="black"/>
</svg>
