<svg width="70" height="70" viewBox="0 0 70 70" fill="none" xmlns="http://www.w3.org/2000/svg">
<g clip-path="url(#clip0)">
<path d="M68.9999 0H44.9999C44.7347 0 44.4804 0.105357 44.2928 0.292893C44.1053 0.48043 43.9999 0.734784 43.9999 1C43.9999 1.26522 44.1053 1.51957 44.2928 1.70711C44.4804 1.89464 44.7347 2 44.9999 2H66.5899L0.289941 68.29C0.101637 68.4783 -0.0041504 68.7337 -0.00415039 69C-0.00415038 69.2663 0.101638 69.5217 0.289941 69.71C0.478245 69.8983 0.73364 70.0041 0.999941 70.0041C1.26624 70.0041 1.52164 69.8983 1.70994 69.71L67.9999 3.41V25C67.9999 25.2652 68.1053 25.5196 68.2928 25.7071C68.4804 25.8946 68.7347 26 68.9999 26C69.2652 26 69.5195 25.8946 69.707 25.7071C69.8946 25.5196 69.9999 25.2652 69.9999 25V1C69.9999 0.734784 69.8946 0.48043 69.707 0.292893C69.5195 0.105357 69.2652 0 68.9999 0V0Z" fill="#3EA6E7"/>
<path d="M16.9999 34C13.6376 34 10.3508 33.003 7.55519 31.135C4.75956 29.267 2.58062 26.612 1.29393 23.5056C0.00724375 20.3993 -0.329413 16.9811 0.326536 13.6835C0.982485 10.3858 2.60158 7.35668 4.97907 4.97919C7.35656 2.6017 10.3857 0.982607 13.6833 0.326658C16.981 -0.329291 20.3992 0.00736582 23.5055 1.29406C26.6118 2.58075 29.2669 4.75968 31.1349 7.55531C33.0029 10.3509 33.9999 13.6377 33.9999 17C33.9999 21.5087 32.2088 25.8327 29.0207 29.0208C25.8326 32.2089 21.5086 34 16.9999 34ZM16.9999 2.00001C14.0332 2.00001 11.1331 2.87974 8.66633 4.52796C6.19959 6.17618 4.27701 8.51886 3.14169 11.2598C2.00638 14.0006 1.70933 17.0166 2.28811 19.9264C2.86688 22.8361 4.2955 25.5088 6.39328 27.6066C8.49107 29.7044 11.1638 31.133 14.0735 31.7118C16.9832 32.2906 19.9992 31.9935 22.7401 30.8582C25.481 29.7229 27.8237 27.8003 29.4719 25.3336C31.1202 22.8668 31.9999 19.9667 31.9999 17C31.9999 13.0218 30.4195 9.20645 27.6065 6.39341C24.7934 3.58036 20.9781 2.00001 16.9999 2.00001Z" fill="#203752"/>
<path d="M52.9999 70C49.6376 70 46.3508 69.003 43.5552 67.135C40.7596 65.267 38.5806 62.612 37.2939 59.5056C36.0072 56.3993 35.6706 52.9811 36.3265 49.6835C36.9825 46.3858 38.6016 43.3567 40.9791 40.9792C43.3566 38.6017 46.3857 36.9826 49.6834 36.3267C52.981 35.6707 56.3992 36.0074 59.5055 37.2941C62.6119 38.5807 65.2669 40.7597 67.1349 43.5553C69.0029 46.351 69.9999 49.6377 69.9999 53C69.9999 57.5087 68.2088 61.8327 65.0207 65.0208C61.8326 68.2089 57.5086 70 52.9999 70ZM52.9999 38C50.0332 38 47.1331 38.8797 44.6663 40.528C42.1996 42.1762 40.277 44.5189 39.1417 47.2598C38.0064 50.0007 37.7093 53.0166 38.2881 55.9264C38.8669 58.8361 40.2955 61.5088 42.3933 63.6066C44.4911 65.7044 47.1638 67.133 50.0735 67.7118C52.9832 68.2906 55.9992 67.9935 58.7401 66.8582C61.481 65.7229 63.8237 63.8003 65.4719 61.3336C67.1202 58.8668 67.9999 55.9667 67.9999 53C67.9999 49.0218 66.4195 45.2065 63.6065 42.3934C60.7934 39.5804 56.9781 38 52.9999 38Z" fill="#203752"/>
</g>
<defs>
<clipPath id="clip0">
<rect width="70" height="70" fill="white"/>
</clipPath>
</defs>
</svg>
