<svg width="74" height="74" viewBox="0 0 74 74" fill="none" xmlns="http://www.w3.org/2000/svg">
<g clip-path="url(#clip0)">
<path d="M58 26.9999C61.6355 33.3037 62.8558 40.7141 61.4336 47.8508C60.0115 54.9875 56.0437 61.364 50.2694 65.7926C44.4951 70.2212 37.3079 72.4 30.0465 71.9232C22.7851 71.4465 15.9446 68.3466 10.7989 63.2009C5.65331 58.0553 2.55341 51.2147 2.07661 43.9533C1.59982 36.6919 3.77864 29.5048 8.20726 23.7305C12.6359 17.9562 19.0124 13.9884 26.1491 12.5662C33.2858 11.144 40.6961 12.3644 47 15.9999C47.005 15.3139 47.245 14.6504 47.68 14.1199C40.9405 10.3285 33.0561 9.1058 25.4849 10.6778C17.9136 12.2498 11.1677 16.5103 6.49464 22.6712C1.82158 28.8322 -0.46252 36.4769 0.0647544 44.1916C0.592028 51.9063 3.895 59.1691 9.36286 64.637C14.8307 70.1049 22.0936 73.4078 29.8083 73.9351C37.523 74.4624 45.1677 72.1783 51.3286 67.5052C57.4896 62.8321 61.75 56.0862 63.322 48.515C64.8941 40.9438 63.6713 33.0594 59.88 26.3199C59.3495 26.7549 58.6859 26.9949 58 26.9999Z" fill="#3EA6E7"/>
<path d="M37.8 40.45C37.9311 40.9563 37.9983 41.477 38 42C38 43.1867 37.6481 44.3467 36.9888 45.3334C36.3295 46.3201 35.3924 47.0891 34.2961 47.5433C33.1997 47.9974 31.9933 48.1162 30.8294 47.8847C29.6655 47.6532 28.5964 47.0817 27.7573 46.2426C26.9182 45.4035 26.3468 44.3344 26.1152 43.1705C25.8837 42.0066 26.0026 40.8002 26.4567 39.7039C26.9108 38.6075 27.6798 37.6705 28.6665 37.0112C29.6532 36.3519 30.8133 36 32 36C32.5382 36 33.0737 36.0774 33.59 36.23L35.16 34.66C33.455 33.9257 31.5477 33.8072 29.7649 34.3249C27.9822 34.8425 26.4349 35.964 25.3883 37.4972C24.3417 39.0304 23.8608 40.8799 24.0282 42.7287C24.1955 44.5776 25.0006 46.3106 26.3055 47.631C27.6105 48.9514 29.3339 49.7768 31.1807 49.966C33.0274 50.1551 34.8824 49.696 36.4278 48.6676C37.9733 47.6391 39.1129 46.1051 39.6515 44.3286C40.1901 42.5521 40.0941 40.6435 39.38 38.93L37.8 40.45Z" fill="#3EA6E7"/>
<path fill-rule="evenodd" clip-rule="evenodd" d="M73.93 9.62998C73.8559 9.44391 73.7276 9.28438 73.5618 9.17206C73.396 9.05973 73.2003 8.99978 73 8.99998H65V0.999977C64.9993 0.799685 64.9385 0.604215 64.8254 0.438889C64.7123 0.273564 64.5522 0.146003 64.3658 0.0727322C64.1794 -0.000539012 63.9753 -0.0161439 63.7799 0.0279392C63.5845 0.0720223 63.4069 0.173762 63.27 0.319977L49.27 15.32C49.0973 15.5044 49.0009 15.7473 49 16V23.59L32.51 40.08C32.3451 40.0275 32.1731 40.0005 32 40C31.6044 40 31.2178 40.1173 30.8889 40.337C30.56 40.5568 30.3036 40.8692 30.1522 41.2346C30.0009 41.6001 29.9613 42.0022 30.0384 42.3902C30.1156 42.7781 30.3061 43.1345 30.5858 43.4142C30.8655 43.6939 31.2219 43.8844 31.6098 43.9615C31.9978 44.0387 32.3999 43.9991 32.7654 43.8477C33.1308 43.6964 33.4432 43.44 33.6629 43.1111C33.8827 42.7822 34 42.3955 34 42C33.9978 41.8277 33.9743 41.6564 33.93 41.49L50.41 25H58C58.2526 24.9991 58.4956 24.9026 58.68 24.73L73.68 10.73C73.8275 10.5931 73.9303 10.4148 73.9749 10.2186C74.0195 10.0223 74.0039 9.81719 73.93 9.62998ZM63 9.58998L58 14.59V8.89998L63 3.53998V9.58998ZM51 16.4L56 11V16.55L51 21.55V16.4ZM57.61 23H52.41L57.41 18H63L57.61 23ZM65.11 16H59.41L64.41 11H70.41L65.11 16Z" fill="#203752"/>
<path d="M46.6599 31.59C49.3013 35.2887 50.4562 39.845 49.8957 44.3553C49.3352 48.8656 47.1002 53.0006 43.6338 55.9402C40.1675 58.8799 35.723 60.4095 31.1817 60.2258C26.6404 60.0421 22.3339 58.1585 19.1164 54.9485C15.8988 51.7385 14.005 47.4365 13.8106 42.8956C13.6162 38.3548 15.1354 33.9067 18.0669 30.4334C20.9984 26.9602 25.1281 24.7154 29.637 24.1443C34.146 23.5731 38.705 24.7174 42.4099 27.35L43.8399 25.92C39.7635 22.9132 34.7014 21.5581 29.6681 22.1263C24.6347 22.6944 20.002 25.1439 16.6985 28.9837C13.395 32.8235 11.6647 37.77 11.8544 42.8317C12.0442 47.8935 14.1399 52.6965 17.7216 56.2783C21.3034 59.86 26.1064 61.9557 31.1682 62.1455C36.2299 62.3352 41.1764 60.6049 45.0162 57.3014C48.856 53.9979 51.3055 49.3652 51.8736 44.3319C52.4418 39.2985 51.0867 34.2364 48.0799 30.16L46.6599 31.59Z" fill="#3EA6E7"/>
</g>
<defs>
<clipPath id="clip0">
<rect width="74" height="74" fill="white"/>
</clipPath>
</defs>
</svg>
