<svg width="69" height="80" viewBox="0 0 69 80" fill="none" xmlns="http://www.w3.org/2000/svg">
<path d="M32.1022 39.2207L29.0615 38.8285C28.9306 38.812 28.8042 38.7696 28.6895 38.7038C28.5748 38.638 28.474 38.5501 28.393 38.445C28.312 38.34 28.2523 38.2198 28.2174 38.0915C28.1824 37.9632 28.1728 37.8292 28.1892 37.6971C28.2055 37.565 28.2475 37.4375 28.3127 37.3218C28.378 37.2061 28.4651 37.1045 28.5693 37.0228C28.6734 36.9411 28.7925 36.8809 28.9197 36.8456C29.047 36.8103 29.1798 36.8006 29.3107 36.8172L32.3515 37.2094C32.6159 37.2427 32.8564 37.3806 33.0199 37.5928C33.1835 37.805 33.2569 38.074 33.2238 38.3407C33.1908 38.6074 33.054 38.85 32.8437 39.015C32.6334 39.18 32.3667 39.254 32.1022 39.2207Z" fill="#203752"/>
<path d="M39.8787 38.8484L36.8878 39.13C36.7569 39.1419 36.625 39.1276 36.4995 39.0881C36.374 39.0485 36.2575 38.9844 36.1566 38.8995C36.0557 38.8145 35.9724 38.7103 35.9114 38.5928C35.8504 38.4753 35.8129 38.3469 35.8011 38.2149C35.7894 38.0828 35.8035 37.9497 35.8427 37.8231C35.8819 37.6966 35.9455 37.579 36.0297 37.4772C36.114 37.3754 36.2172 37.2914 36.3337 37.2299C36.4501 37.1683 36.5775 37.1306 36.7084 37.1187L39.7491 36.827C40.0135 36.8017 40.2771 36.8834 40.4818 37.054C40.6866 37.2247 40.8157 37.4704 40.8408 37.7372C40.8659 38.0039 40.785 38.2697 40.6158 38.4763C40.4466 38.6828 40.203 38.813 39.9386 38.8384L39.8787 38.8484Z" fill="#203752"/>
<path d="M39.8785 40.6889C38.1063 41.0499 36.3029 41.2318 34.4949 41.232C32.0779 41.227 29.6728 40.8887 27.3467 40.2263C27.9263 41.0122 28.4494 41.839 28.9119 42.7002C32.2003 43.3301 35.5699 43.4014 38.8816 42.9114C39.1807 42.1471 39.5296 41.4029 39.8785 40.6889Z" fill="#203752"/>
<path d="M47.9142 73.5337L44.8635 73.1918C44.7326 73.1766 44.6059 73.1355 44.4907 73.071C44.3755 73.0064 44.274 72.9196 44.1921 72.8154C44.1102 72.7113 44.0494 72.5919 44.0132 72.4641C43.977 72.3363 43.9661 72.2025 43.9812 72.0705C43.9962 71.9384 44.0369 71.8106 44.1009 71.6944C44.165 71.5782 44.251 71.4759 44.3543 71.3932C44.4575 71.3106 44.5758 71.2493 44.7025 71.2127C44.8293 71.1762 44.9619 71.1653 45.0928 71.1805L48.0837 71.5224C48.3481 71.5531 48.5896 71.6884 48.7551 71.8987C48.9205 72.109 48.9964 72.377 48.966 72.6437C48.9356 72.9104 48.8014 73.154 48.5929 73.3209C48.3845 73.4878 48.1188 73.5644 47.8544 73.5337H47.9142Z" fill="#3EA6E7"/>
<path d="M40.1278 72.1258L39.6193 71.9548C39.3681 71.8708 39.1603 71.6896 39.0416 71.451C38.9229 71.2124 38.903 70.936 38.9863 70.6827C39.0695 70.4293 39.2492 70.2197 39.4857 70.0999C39.7222 69.9801 39.9962 69.9601 40.2474 70.0441L40.7559 70.215C41.0071 70.299 41.2149 70.4803 41.3336 70.7188C41.4523 70.9574 41.4722 71.2338 41.3889 71.4872C41.3057 71.7406 41.126 71.9502 40.8895 72.07C40.653 72.1897 40.379 72.2098 40.1278 72.1258Z" fill="#3EA6E7"/>
<path d="M60.9844 71.9548L60.4759 72.1257C60.2247 72.2098 59.9508 72.1897 59.7142 72.0699C59.4777 71.9502 59.2981 71.7405 59.2148 71.4871C59.1315 71.2338 59.1514 70.9574 59.2701 70.7188C59.3888 70.4802 59.5967 70.299 59.8478 70.215L60.3563 70.044C60.6075 69.9615 60.8809 69.983 61.1164 70.1037C61.3519 70.2243 61.5303 70.4344 61.6125 70.6876C61.6947 70.9397 61.6748 71.2144 61.5572 71.4517C61.4395 71.6891 61.2336 71.8699 60.9844 71.9548Z" fill="#3EA6E7"/>
<path d="M55.7504 73.1415L52.7595 73.5739C52.4951 73.6113 52.2268 73.5411 52.0137 73.3789C51.8006 73.2167 51.66 72.9758 51.623 72.7091C51.586 72.4423 51.6555 72.1717 51.8163 71.9567C51.9771 71.7417 52.216 71.5999 52.4804 71.5626L55.4713 71.1302C55.7357 71.0928 56.004 71.163 56.2171 71.3252C56.4303 71.4874 56.5708 71.7283 56.6078 71.995C56.6449 72.2618 56.5753 72.5324 56.4145 72.7474C56.2537 72.9624 56.0149 73.1042 55.7504 73.1415Z" fill="#3EA6E7"/>
<path d="M29.7794 54.5972C29.7794 54.2955 29.7794 54.0139 29.7794 53.7022C29.7794 45.4759 24.0668 36.7568 18.6632 36.7568C13.2596 36.7568 7.58691 45.4759 7.58691 53.7022C7.58691 54.0139 7.58691 54.2955 7.58691 54.5972C2.9909 56.3873 0 59.3338 0 62.6324C0.0335421 63.3527 0.171249 64.0641 0.408756 64.7443L2.94105 72.7895C4.09753 76.9328 10.5977 79.99 18.6931 79.99C26.7885 79.99 33.199 76.973 34.4153 72.8499L36.9675 64.7241C37.2056 64.0477 37.3433 63.3394 37.3762 62.6223C37.3962 59.3338 34.4153 56.3873 29.7794 54.5972ZM18.6931 38.7681C22.5912 38.7681 27.8153 46.1597 27.8153 53.7022C27.8153 61.2446 24.316 66.0918 18.6931 66.0918C13.0702 66.0918 9.58084 61.3451 9.58084 53.7022C9.58084 46.0592 14.795 38.7681 18.6931 38.7681ZM32.5111 72.4074C31.5141 75.5249 25.6121 78.0189 18.713 78.0189C11.814 78.0189 5.86216 75.4746 4.8951 72.337L3.70871 68.616C7.08843 71.0296 12.482 72.5683 18.6632 72.5683C24.8444 72.5683 30.2679 71.0296 33.6177 68.6261L32.5111 72.4074ZM18.6931 70.5972C9.64066 70.557 1.99393 66.9265 1.99393 62.6324C1.99393 60.3395 4.25704 58.1773 7.77633 56.7091C8.6736 63.7487 12.7612 68.1032 18.743 68.1032C24.7248 68.1032 28.7724 63.7185 29.7096 56.7091C33.2189 58.1773 35.492 60.2993 35.492 62.6324C35.4023 66.9265 27.7456 70.557 18.6931 70.557V70.5972Z" fill="#3EA6E7"/>
<path d="M16.3203 75.9171L13.2695 75.5853C13.0051 75.5559 12.7631 75.4218 12.5967 75.2125C12.4303 75.0031 12.3532 74.7357 12.3822 74.469C12.4113 74.2023 12.5443 73.9581 12.7518 73.7903C12.9593 73.6224 13.2245 73.5446 13.4889 73.5739L16.4798 73.9058C16.7442 73.9338 16.9867 74.0666 17.1541 74.275C17.3214 74.4834 17.3998 74.7503 17.372 75.0171C17.3443 75.2838 17.2126 75.5284 17.006 75.6972C16.7994 75.866 16.5348 75.9451 16.2704 75.9171H16.3203Z" fill="#3EA6E7"/>
<path d="M8.46413 74.509L7.96565 74.3079C7.71578 74.2092 7.51501 74.0144 7.4075 73.7664C7.3 73.5184 7.29456 73.2375 7.39239 72.9854C7.49023 72.7334 7.68331 72.5308 7.92917 72.4224C8.17504 72.314 8.45353 72.3085 8.7034 72.4072L9.19192 72.6083C9.31918 72.6524 9.43629 72.722 9.53618 72.8129C9.63607 72.9039 9.71668 73.0142 9.77314 73.1374C9.82961 73.2606 9.86077 73.3941 9.86474 73.5298C9.86871 73.6654 9.84542 73.8005 9.79626 73.9269C9.7471 74.0532 9.67309 74.1682 9.5787 74.265C9.4843 74.3617 9.37147 74.4381 9.24701 74.4897C9.12254 74.5413 8.98901 74.5669 8.85446 74.565C8.71992 74.5631 8.58714 74.5338 8.46413 74.4788V74.509Z" fill="#3EA6E7"/>
<path d="M29.4304 74.308L28.9319 74.5091C28.686 74.6078 28.4113 74.6039 28.1683 74.4983C27.9252 74.3926 27.7337 74.194 27.6359 73.9459C27.538 73.6979 27.5419 73.4208 27.6466 73.1756C27.7513 72.9304 27.9483 72.7372 28.1942 72.6386L28.6827 72.4374C28.9286 72.3374 29.2038 72.34 29.4478 72.4447C29.6918 72.5494 29.8846 72.7475 29.9837 72.9956C30.0829 73.2436 30.0803 73.5212 29.9765 73.7674C29.8728 74.0135 29.6763 74.2079 29.4304 74.308Z" fill="#3EA6E7"/>
<path d="M24.1265 75.5751L21.0857 75.9271C20.8213 75.9577 20.5556 75.8812 20.3472 75.7143C20.1387 75.5474 20.0045 75.3038 19.9741 75.037C19.9437 74.7703 20.0196 74.5024 20.185 74.2921C20.3505 74.0818 20.592 73.9464 20.8564 73.9157L23.8473 73.5638C24.1117 73.5331 24.3774 73.6096 24.5859 73.7765C24.7943 73.9434 24.9285 74.1871 24.9589 74.4538C24.9893 74.7205 24.9135 74.9885 24.748 75.1987C24.5825 75.409 24.341 75.5444 24.0766 75.5751H24.1265Z" fill="#3EA6E7"/>
<path d="M25.3627 37.9636L25.8014 36.0026L23.3289 35.4395L23.1594 36.2138C23.9509 36.72 24.6892 37.3064 25.3627 37.9636Z" fill="#203752"/>
<path d="M45.5812 17.8303C45.5812 17.5387 45.5812 17.247 45.5812 16.9453C45.6112 8.70899 39.8786 0 34.495 0C29.1114 0 23.3888 8.70899 23.3888 16.9453C23.3888 17.247 23.3888 17.5387 23.3888 17.8303C18.7429 19.6204 15.772 22.5267 15.772 25.8755C15.7788 26.3482 15.8459 26.818 15.9714 27.2734L17.9653 34.8158C18.2062 34.7774 18.4493 34.7539 18.6931 34.7454C19.1489 34.7504 19.6031 34.8009 20.049 34.8963L19.1916 31.6279C22.5414 34.1923 28.0945 35.8014 34.495 35.8014C40.8955 35.8014 46.4486 34.1923 49.8483 31.6279L49.6389 32.4224C49.8682 32.4224 50.1075 32.362 50.3467 32.362C50.7953 32.3696 51.2423 32.4167 51.6827 32.5028L53.0086 27.384C53.1496 26.8934 53.2267 26.3863 53.2379 25.8755C53.1981 22.5267 50.2271 19.6204 45.5812 17.8303ZM34.495 2.01131C38.3931 2.01131 43.6172 9.39283 43.6172 16.9453C43.6172 24.4978 40.1179 29.335 34.495 29.335C28.8721 29.335 25.3827 24.5883 25.3827 16.9453C25.3827 9.30233 30.6068 2.01131 34.495 2.01131ZM34.495 33.7901C25.4425 33.7901 17.7958 30.1697 17.7958 25.8755C17.7958 23.5424 20.0689 21.4104 23.5782 19.9522C24.4755 26.9918 28.563 31.3463 34.5448 31.3463C40.5266 31.3463 44.5743 26.9617 45.5115 19.9522C49.0208 21.4104 51.2939 23.5424 51.2939 25.8755C51.2041 30.1697 43.5574 33.7901 34.495 33.7901Z" fill="#203752"/>
<path d="M61.3832 52.2036C61.3832 51.9119 61.3832 51.6203 61.3832 51.3186C61.3832 43.0823 55.6706 34.3733 50.277 34.3733C44.8835 34.3733 39.1908 43.0823 39.1908 51.2884C39.1908 51.6002 39.1908 51.8918 39.1908 52.1935C37.5149 52.8029 35.9464 53.6788 34.5449 54.7881C35.1136 55.1733 35.6534 55.6002 36.16 56.0653C37.157 55.3464 38.2387 54.7552 39.3802 54.3054C40.2775 61.345 44.365 65.6995 50.3468 65.6995C56.3286 65.6995 60.3265 61.345 61.2237 54.3054C64.733 55.7636 67.0061 57.8956 67.0061 60.2287C67.0061 64.5229 59.3594 68.1533 50.3069 68.1533C46.3906 68.2227 42.5018 67.4799 38.8817 65.971L38.3234 67.9823C42.1214 69.533 46.1903 70.2957 50.287 70.225C56.4483 70.225 61.8119 68.7064 65.1916 66.3331L64.0252 70.1646C62.9086 73.1816 57.0464 75.6354 50.287 75.6354C44.5046 75.6354 39.4301 73.8856 37.3265 71.482L36.7083 73.6543C39.4998 76.0678 44.4647 77.6769 50.2571 77.6769C58.3226 77.6769 64.7929 74.6599 65.9892 70.4965L68.5016 62.4512C68.7602 61.751 68.9115 61.0152 68.9502 60.269C69.0001 56.9 66.0291 53.9937 61.3832 52.2036ZM50.3069 63.7083C44.6741 63.7083 41.1847 58.9616 41.1847 51.3186C41.1847 43.6756 46.4088 36.3846 50.3069 36.3846C54.2051 36.3846 59.4192 43.7661 59.4192 51.2884C59.4192 58.8108 55.9298 63.7083 50.3069 63.7083Z" fill="#3EA6E7"/>
</svg>
