<svg width="81" height="81" viewBox="0 0 81 81" fill="none" xmlns="http://www.w3.org/2000/svg">
<path d="M72.85 49.48L58.85 26.48C58.742 26.3021 58.5812 26.1622 58.39 26.08L49.18 22.13C49.0609 21.3712 48.7771 20.6477 48.3484 20.0102C47.9198 19.3728 47.3567 18.8371 46.6988 18.4405C46.041 18.044 45.3042 17.7964 44.5404 17.7151C43.7766 17.6338 43.0042 17.7207 42.2776 17.9699C41.551 18.219 40.8878 18.6242 40.3346 19.1571C39.7813 19.69 39.3515 20.3376 39.0753 21.0543C38.7992 21.7711 38.6833 22.5396 38.7359 23.3059C38.7886 24.0723 39.0084 24.8178 39.38 25.49L31.69 35.75L13.43 27.1C13.3106 27.0321 13.1785 26.9895 13.042 26.9749C12.9054 26.9603 12.7673 26.974 12.6363 27.0151C12.5052 27.0562 12.384 27.1239 12.2803 27.2138C12.1765 27.3038 12.0924 27.4142 12.0332 27.5382C11.974 27.6621 11.941 27.7969 11.9362 27.9341C11.9313 28.0714 11.9548 28.2081 12.0052 28.3359C12.0556 28.4637 12.1317 28.5797 12.2289 28.6768C12.326 28.7738 12.4422 28.8498 12.57 28.9L31.57 37.9C31.7781 37.9996 32.0143 38.0242 32.2385 37.9695C32.4627 37.9148 32.6611 37.7843 32.8 37.6L40.7 27.07C41.6263 27.8428 42.7937 28.2673 44 28.27C45.1737 28.265 46.3124 27.8691 47.236 27.1447C48.1596 26.4203 48.8154 25.4088 49.1 24.27L57.31 27.79L71.15 50.52C71.2019 50.6558 71.2828 50.7786 71.387 50.88C71.4912 50.9813 71.6163 51.0587 71.7534 51.1067C71.8906 51.1548 72.0366 51.1724 72.1813 51.1582C72.3259 51.1441 72.4658 51.0986 72.5911 51.0249C72.7164 50.9512 72.8241 50.8511 72.9067 50.7315C72.9894 50.6119 73.0449 50.4758 73.0696 50.3325C73.0942 50.1893 73.0873 50.0424 73.0494 49.9021C73.0115 49.7617 72.9434 49.6314 72.85 49.52V49.48ZM44 26.27C43.3532 26.27 42.721 26.0783 42.1833 25.7189C41.6455 25.3596 41.2264 24.8489 40.9789 24.2514C40.7314 23.6539 40.6666 22.9964 40.7928 22.3621C40.919 21.7278 41.2304 21.1451 41.6877 20.6878C42.1451 20.2305 42.7277 19.919 43.362 19.7929C43.9964 19.6667 44.6538 19.7315 45.2514 19.979C45.8489 20.2265 46.3596 20.6456 46.7189 21.1833C47.0782 21.7211 47.27 22.3533 47.27 23C47.2673 23.8665 46.922 24.6967 46.3093 25.3094C45.6966 25.922 44.8664 26.2674 44 26.27Z" fill="#203752"/>
<path fill-rule="evenodd" clip-rule="evenodd" d="M81 75L73 69V74H7V8H12L6 0L0 8H5V76H73V81L81 75Z" fill="#3EA6E7"/>
</svg>
