<svg width="92" height="41" viewBox="0 0 92 41" fill="none" xmlns="http://www.w3.org/2000/svg">
<g clip-path="url(#clip0)">
<path opacity="0.5" fill-rule="evenodd" clip-rule="evenodd" d="M0.1875 7.25V28.4636L21.4011 7.25H0.1875Z" fill="black"/>
<path fill-rule="evenodd" clip-rule="evenodd" d="M1.97363 30.25H23.1872V9.03644L1.97363 30.25Z" fill="black"/>
</g>
<path d="M29.5745 30.25H34.0385V21.663H39.0605C43.8035 21.663 46.6245 18.904 46.6245 15.091C46.6245 11.278 43.8035 8.55 39.0605 8.55H29.5745V30.25ZM34.0385 17.85V12.456H38.7505C40.8585 12.456 42.1605 13.386 42.1605 15.153C42.1605 16.889 40.8585 17.85 38.7505 17.85H34.0385ZM50.0091 30.25H59.3711C64.5171 30.25 67.5861 27.305 67.5861 23.151C67.5861 19.028 64.5171 16.021 59.3711 16.021H54.4731V12.549H65.7571V8.55H50.0091V30.25ZM54.4731 26.313V19.741H59.0301C61.5721 19.741 63.0911 20.95 63.0911 23.058C63.0911 25.166 61.5721 26.313 59.0301 26.313H54.4731ZM71.2913 30.25H75.7553V20.237L85.0863 30.25H90.7903L80.0023 18.501L89.2093 8.55H83.7533L75.7553 17.106V8.55H71.2913V30.25Z" fill="black"/>
<defs>
<clipPath id="clip0">
<rect x="0.1875" y="7.25" width="23" height="23" fill="white"/>
</clipPath>
</defs>
</svg>
