<svg width="41" height="39" viewBox="0 0 41 39" fill="none" xmlns="http://www.w3.org/2000/svg">
<path d="M32.662 17.7689C35.6788 17.7689 37.9499 16.5121 39.6245 14.3241L37.3864 12.6165C36.8336 13.3451 36.1191 13.9354 35.2992 14.3407C34.4794 14.7461 33.5766 14.9555 32.662 14.9525C29.3879 14.9525 27.0155 12.2852 27.0155 9.0123C27.0155 5.73938 29.3492 2.92186 32.7554 2.92186C34.2694 2.92186 35.3395 3.27931 36.273 3.85762V6.73549H39.0894V2.53935L38.5498 2.11471C37.0016 0.896615 34.6371 0.25 32.6609 0.25C27.8295 0.25 23.8997 4.17979 23.8997 9.01119C23.8997 13.838 27.8272 17.7689 32.6609 17.7689H32.662ZM38.5054 35.0499L38.4053 31.0166V21.1739H32.5311V23.9915H35.4386V30.6694C35.4386 33.5461 33.2415 35.5827 31.025 35.5827C28.8085 35.5827 27.6519 34.0459 27.6519 31.1703V21.1728H22.1648V23.9903H24.6852V31.6586C24.6852 35.5611 26.8732 38.25 30.7757 38.25C33.0183 38.25 34.7259 37.0057 35.7448 35.0875H35.7903L36.1922 37.7696H40.706V35.0533H38.5089V35.0477L38.5054 35.0499ZM23.2508 0.663249H18.3557L14.098 13.0263H14.032L9.79712 0.663249H4.58095V3.48192H7.51462L12.5634 17.5731H15.2455V17.5697L20.5107 3.48307H23.2485V0.664395L23.2508 0.663249ZM0 37.806H2.90066V34.9065H0.00113841V37.806H0ZM11.2019 24.4411H11.17L10.9879 21.1739H5.81042V23.7422H8.56537V35.0511H5.81042V37.7684H18.6061V35.1046H11.482V28.2798C11.8041 25.8095 13.6563 23.7 16.1836 23.7H16.2291L16.1779 26.225H18.9943V21.1272H16.7676C14.2176 21.1204 12.3255 22.5002 11.2008 24.4423L11.2019 24.4411Z" fill="black"/>
</svg>
