<svg width="70" height="70" viewBox="0 0 70 70" fill="none" xmlns="http://www.w3.org/2000/svg">
<path d="M68.9999 0H44.9999C44.7347 0 44.4804 0.105357 44.2928 0.292893C44.1053 0.48043 43.9999 0.734784 43.9999 1C43.9999 1.26522 44.1053 1.51957 44.2928 1.70711C44.4804 1.89464 44.7347 2 44.9999 2H66.5899L0.289941 68.29C0.101637 68.4783 -0.0041504 68.7337 -0.00415039 69C-0.00415038 69.2663 0.101638 69.5217 0.289941 69.71C0.478245 69.8983 0.73364 70.0041 0.999941 70.0041C1.26624 70.0041 1.52164 69.8983 1.70994 69.71L67.9999 3.41V25C67.9999 25.2652 68.1053 25.5196 68.2928 25.7071C68.4804 25.8946 68.7347 26 68.9999 26C69.2652 26 69.5195 25.8946 69.707 25.7071C69.8946 25.5196 69.9999 25.2652 69.9999 25V1C69.9999 0.734784 69.8946 0.48043 69.707 0.292893C69.5195 0.105357 69.2652 0 68.9999 0V0Z" fill="#3EA6E7"/>
</svg>
