<svg width="8" height="12" viewBox="0 0 8 12" fill="none" xmlns="http://www.w3.org/2000/svg">
<path fill-rule="evenodd" clip-rule="evenodd" d="M4.00063 1.50004C4.13324 1.50004 4.26042 1.55272 4.35419 1.64649C4.44795 1.74025 4.50063 1.86743 4.50063 2.00004V11C4.50063 11.1326 4.44795 11.2598 4.35419 11.3536C4.26042 11.4474 4.13324 11.5 4.00063 11.5C3.86802 11.5 3.74085 11.4474 3.64708 11.3536C3.55331 11.2598 3.50063 11.1326 3.50063 11V2.00004C3.50063 1.86743 3.55331 1.74025 3.64708 1.64649C3.74085 1.55272 3.86802 1.50004 4.00063 1.50004Z" fill="#77d555"/>
<path fill-rule="evenodd" clip-rule="evenodd" d="M3.64663 0.646039C3.69308 0.599476 3.74825 0.562533 3.809 0.537327C3.86974 0.51212 3.93486 0.499146 4.00063 0.499146C4.0664 0.499146 4.13152 0.51212 4.19227 0.537327C4.25301 0.562533 4.30819 0.599476 4.35463 0.646039L7.35463 3.64604C7.44852 3.73993 7.50126 3.86726 7.50126 4.00004C7.50126 4.13282 7.44852 4.26015 7.35463 4.35404C7.26075 4.44793 7.13341 4.50067 7.00063 4.50067C6.86786 4.50067 6.74052 4.44793 6.64663 4.35404L4.00063 1.70704L1.35463 4.35404C1.26075 4.44793 1.13341 4.50067 1.00063 4.50067C0.867856 4.50067 0.740518 4.44793 0.646632 4.35404C0.552745 4.26015 0.5 4.13282 0.5 4.00004C0.5 3.86726 0.552745 3.73993 0.646632 3.64604L3.64663 0.646039Z" fill="#77d555"/>
</svg>
